<?xml version="1.0" encoding="UTF-8"?>
<svg version="1.1" xmlns="http://www.w3.org/2000/svg" width="1024" height="1024">
<path d="M0 0 C1.22887247 -0.00424107 1.22887247 -0.00424107 2.48257065 -0.00856781 C6.82969218 -0.02348438 11.17678124 -0.03275784 15.52392578 -0.03710938 C19.06114154 -0.04146893 22.59810993 -0.0552729 26.13525391 -0.078125 C45.39035399 -0.20014287 64.20316795 -0.06923867 83.28405762 2.85035706 C86.52141988 3.31495319 89.76489851 3.64032552 93.02075195 3.94439697 C101.62972196 4.75020338 109.95302408 6.38561437 118.38671875 8.26171875 C122.01011819 9.06386929 125.63483337 9.70645388 129.3046875 10.265625 C133.79512183 10.9713539 137.98392582 12.10048126 142.30859375 13.484375 C144.79602413 14.21902539 147.255141 14.73171425 149.8046875 15.203125 C153.86624015 15.96466612 157.6277095 17.11159837 161.51953125 18.484375 C163.78924047 19.21834072 166.03047109 19.72866482 168.3671875 20.203125 C171.6960482 20.90092742 174.58719039 21.93066089 177.6875 23.359375 C180.36422824 24.45856378 183.09379225 25.25342234 185.8671875 26.078125 C191.56696769 27.79067364 197.08214009 29.802289 202.6171875 31.984375 C205.51676098 33.11520866 208.43198883 34.16913456 211.3671875 35.203125 C216.04685257 36.88753275 220.52951643 38.87521975 225.03515625 40.9765625 C227.70076999 42.18435863 230.38940431 43.26934101 233.1171875 44.328125 C236.56558818 45.68033251 239.59153221 47.24460955 242.7421875 49.203125 C244.35956449 49.89628657 245.97768482 50.58783258 247.6015625 51.265625 C255.2293414 54.60625809 262.48886372 58.54751182 269.578125 62.90234375 C271.84491935 64.30292224 271.84491935 64.30292224 274.7421875 65.703125 C281.71027884 69.18717067 288.20288994 73.47057172 294.6484375 77.828125 C296.54277766 79.07216928 298.45421008 80.21908505 300.4296875 81.328125 C303.65260109 83.15241571 306.68043613 85.12113407 309.7421875 87.203125 C310.5259375 87.70328125 311.3096875 88.2034375 312.1171875 88.71875 C312.9421875 89.24984375 313.7671875 89.7809375 314.6171875 90.328125 C315.39835938 90.82570313 316.17953125 91.32328125 316.984375 91.8359375 C317.85449219 92.51269531 317.85449219 92.51269531 318.7421875 93.203125 C318.7421875 93.863125 318.7421875 94.523125 318.7421875 95.203125 C319.31324219 95.30109375 319.88429688 95.3990625 320.47265625 95.5 C323.2169894 96.3502237 324.83345043 97.6382599 327.0546875 99.453125 C329.91027913 101.75556395 332.7727362 103.95118661 335.8046875 106.015625 C336.7740625 106.7375 337.7434375 107.459375 338.7421875 108.203125 C338.7421875 108.863125 338.7421875 109.523125 338.7421875 110.203125 C339.62729004 110.36723877 339.62729004 110.36723877 340.53027344 110.53466797 C342.99708982 111.28015839 344.21742804 112.19544223 346.1328125 113.8984375 C346.75639648 114.44653076 347.37998047 114.99462402 348.02246094 115.55932617 C348.99747559 116.43488159 348.99747559 116.43488159 349.9921875 117.328125 C350.66024414 117.91762939 351.32830078 118.50713379 352.01660156 119.11450195 C353.9305645 120.80470353 355.83700371 122.50304222 357.7421875 124.203125 C359.3237586 125.60095475 360.90661648 126.99733405 362.4921875 128.390625 C363.06453125 128.89980469 363.636875 129.40898437 364.2265625 129.93359375 C365.92868529 131.40621382 365.92868529 131.40621382 368.7421875 133.203125 C368.7421875 133.863125 368.7421875 134.523125 368.7421875 135.203125 C369.70125 135.6053125 369.70125 135.6053125 370.6796875 136.015625 C372.7421875 137.203125 372.7421875 137.203125 373.7421875 140.203125 C374.4021875 140.533125 375.0621875 140.863125 375.7421875 141.203125 C376.4021875 141.533125 377.0621875 141.863125 377.7421875 142.203125 C378.0721875 143.193125 378.4021875 144.183125 378.7421875 145.203125 C379.5775 145.6053125 379.5775 145.6053125 380.4296875 146.015625 C383.77982913 147.735968 386.36644257 150.28887788 388.7421875 153.203125 C388.7421875 153.863125 388.7421875 154.523125 388.7421875 155.203125 C389.70125 155.6053125 389.70125 155.6053125 390.6796875 156.015625 C392.7421875 157.203125 392.7421875 157.203125 393.7421875 160.203125 C394.4021875 160.533125 395.0621875 160.863125 395.7421875 161.203125 C396.4021875 161.533125 397.0621875 161.863125 397.7421875 162.203125 C398.0721875 163.193125 398.4021875 164.183125 398.7421875 165.203125 C399.639375 165.64398438 399.639375 165.64398438 400.5546875 166.09375 C403.42909921 167.55148737 404.76093141 169.41651682 406.7421875 171.953125 C409.43068274 175.34628426 412.13732693 178.68612362 414.99609375 181.9375 C415.54458984 182.56301758 416.09308594 183.18853516 416.65820312 183.83300781 C417.74398567 185.06626616 418.83503442 186.29491066 419.93164062 187.51855469 C423.7421875 191.87169569 423.7421875 191.87169569 423.7421875 195.203125 C424.30292969 195.3990625 424.86367188 195.595 425.44140625 195.796875 C428.68264738 197.77793919 430.4578795 200.6196555 432.5546875 203.703125 C433.20945068 204.64273071 433.20945068 204.64273071 433.87744141 205.60131836 C435.17339642 207.46339107 436.45837914 209.33266562 437.7421875 211.203125 C439.03199062 213.05858847 440.32338665 214.91294689 441.6171875 216.765625 C442.44283203 217.95285156 442.44283203 217.95285156 443.28515625 219.1640625 C444.4418231 220.78277589 445.6737729 222.3476442 446.9296875 223.890625 C448.7634193 226.23021384 450.18333136 228.66676075 451.6171875 231.265625 C452.85726219 233.40130918 454.22064212 235.41649632 455.6171875 237.453125 C458.50953025 241.72590407 460.94918961 246.1687844 463.375 250.71875 C464.76176012 253.33135903 464.76176012 253.33135903 466.7421875 256.140625 C469.2954712 260.05034067 471.24179256 264.18090763 473.29296875 268.37109375 C474.88773732 271.48755523 476.78653325 274.30336181 478.7421875 277.203125 C479.77320697 279.52291881 480.77155267 281.85742415 481.7421875 284.203125 C482.3403125 285.37875 482.9384375 286.554375 483.5546875 287.765625 C485.97928026 292.54133801 488.00910024 297.47504803 490.09375 302.40625 C492.28480931 307.52137755 494.70990823 312.52477184 497.12890625 317.53515625 C498.67744789 320.90016766 499.83632854 324.33984774 500.97192383 327.86254883 C502.2780522 331.83144034 503.77487758 335.72912654 505.2421875 339.640625 C507.42265387 345.49575998 509.49698089 351.33100586 511.1953125 357.34765625 C511.74941418 359.34879226 511.74941418 359.34879226 512.8046875 361.765625 C513.67180366 364.02012703 514.18460282 366.09538568 514.6796875 368.453125 C515.3265033 371.53055332 516.12129714 374.43043946 517.1796875 377.390625 C518.47125136 381.11437117 519.35695757 384.82971657 520.16015625 388.6875 C521.13659268 393.33620617 522.1329477 397.97815001 523.171875 402.61328125 C526.24711166 416.62794952 528.66444406 430.60939636 530.5546875 444.828125 C530.65964539 445.61599396 530.76460327 446.40386292 530.8727417 447.21560669 C531.53191264 452.20713393 532.18096772 457.19952406 532.7421875 462.203125 C532.83323761 462.97782135 532.92428772 463.7525177 533.01809692 464.5506897 C533.92857819 473.17585657 533.92485966 481.79902343 533.9453125 490.4609375 C533.94813988 491.28018581 533.95096725 492.09943413 533.95388031 492.94350815 C533.96879688 497.29062968 533.97807034 501.63771874 533.98242188 505.98486328 C533.98678143 509.52207904 534.0005854 513.05904743 534.0234375 516.59619141 C534.14545537 535.85129149 534.01455117 554.66410545 531.09495544 573.74499512 C530.63035931 576.98235738 530.30498698 580.22583601 530.00091553 583.48168945 C529.19510912 592.09065946 527.55969813 600.41396158 525.68359375 608.84765625 C524.88144321 612.47105569 524.23885862 616.09577087 523.6796875 619.765625 C522.9739586 624.25605933 521.84483124 628.44486332 520.4609375 632.76953125 C519.72628711 635.25696163 519.21359825 637.7160785 518.7421875 640.265625 C517.98064638 644.32717765 516.83371413 648.088647 515.4609375 651.98046875 C514.72697178 654.25017797 514.21664768 656.49140859 513.7421875 658.828125 C513.04438508 662.1569857 512.01465161 665.04812789 510.5859375 668.1484375 C509.48674872 670.82516574 508.69189016 673.55472975 507.8671875 676.328125 C506.15463886 682.02790519 504.1430235 687.54307759 501.9609375 693.078125 C500.83010384 695.97769848 499.77617794 698.89292633 498.7421875 701.828125 C497.05777975 706.50779007 495.07009275 710.99045393 492.96875 715.49609375 C491.76095387 718.16170749 490.67597149 720.85034181 489.6171875 723.578125 C488.26497999 727.02652568 486.70070295 730.05246971 484.7421875 733.203125 C484.04902593 734.82050199 483.35747992 736.43862232 482.6796875 738.0625 C479.33905441 745.6902789 475.39780068 752.94980122 471.04296875 760.0390625 C469.64239026 762.30585685 469.64239026 762.30585685 468.2421875 765.203125 C464.75814183 772.17121634 460.47474078 778.66382744 456.1171875 785.109375 C454.87314322 787.00371516 453.72622745 788.91514758 452.6171875 790.890625 C450.79289679 794.11353859 448.82417843 797.14137363 446.7421875 800.203125 C445.99195313 801.37875 445.99195313 801.37875 445.2265625 802.578125 C444.69546875 803.403125 444.164375 804.228125 443.6171875 805.078125 C443.11960937 805.85929688 442.62203125 806.64046875 442.109375 807.4453125 C441.65820312 808.02539062 441.20703125 808.60546875 440.7421875 809.203125 C440.0821875 809.203125 439.4221875 809.203125 438.7421875 809.203125 C438.64421875 809.77417969 438.54625 810.34523438 438.4453125 810.93359375 C437.5950888 813.6779269 436.3070526 815.29438793 434.4921875 817.515625 C432.18974855 820.37121663 429.99412589 823.2336737 427.9296875 826.265625 C427.2078125 827.235 426.4859375 828.204375 425.7421875 829.203125 C425.0821875 829.203125 424.4221875 829.203125 423.7421875 829.203125 C423.63277832 829.79319336 423.52336914 830.38326172 423.41064453 830.99121094 C422.66515411 833.45802732 421.74987027 834.67836554 420.046875 836.59375 C419.49878174 837.21733398 418.95068848 837.84091797 418.38598633 838.48339844 C417.51043091 839.45841309 417.51043091 839.45841309 416.6171875 840.453125 C416.02768311 841.12118164 415.43817871 841.78923828 414.83081055 842.47753906 C413.14060897 844.391502 411.44227028 846.29794121 409.7421875 848.203125 C408.34435775 849.7846961 406.94797845 851.36755398 405.5546875 852.953125 C405.04550781 853.52546875 404.53632812 854.0978125 404.01171875 854.6875 C402.53909868 856.38962279 402.53909868 856.38962279 400.7421875 859.203125 C400.0821875 859.203125 399.4221875 859.203125 398.7421875 859.203125 C398.4740625 859.8425 398.2059375 860.481875 397.9296875 861.140625 C396.7421875 863.203125 396.7421875 863.203125 393.7421875 864.203125 C393.4121875 864.863125 393.0821875 865.523125 392.7421875 866.203125 C392.4121875 866.863125 392.0821875 867.523125 391.7421875 868.203125 C390.7521875 868.533125 389.7621875 868.863125 388.7421875 869.203125 C388.4740625 869.76 388.2059375 870.316875 387.9296875 870.890625 C386.2093445 874.24076663 383.65643462 876.82738007 380.7421875 879.203125 C380.0821875 879.203125 379.4221875 879.203125 378.7421875 879.203125 C378.4740625 879.8425 378.2059375 880.481875 377.9296875 881.140625 C376.7421875 883.203125 376.7421875 883.203125 373.7421875 884.203125 C373.4121875 884.863125 373.0821875 885.523125 372.7421875 886.203125 C372.4121875 886.863125 372.0821875 887.523125 371.7421875 888.203125 C370.7521875 888.533125 369.7621875 888.863125 368.7421875 889.203125 C368.7421875 889.863125 368.7421875 890.523125 368.7421875 891.203125 C367.44921875 892.54296875 367.44921875 892.54296875 365.5546875 894.140625 C364.46994141 895.06294922 364.46994141 895.06294922 363.36328125 896.00390625 C362.49832031 896.72964844 361.63335938 897.45539062 360.7421875 898.203125 C359.6700397 899.11265307 358.59845701 900.02284758 357.52734375 900.93359375 C354.79590835 903.25341619 352.06439671 905.57302721 349.31542969 907.87207031 C348.23662788 908.78479958 347.17004709 909.71211374 346.11425781 910.65136719 C342.06260446 914.203125 342.06260446 914.203125 338.7421875 914.203125 C338.4121875 915.193125 338.0821875 916.183125 337.7421875 917.203125 C336.17578125 918.59765625 336.17578125 918.59765625 334.1796875 920.015625 C330.54568944 922.62347612 327.01180795 925.32654899 323.50390625 928.1015625 C321.7421875 929.203125 321.7421875 929.203125 318.7421875 929.203125 C318.7421875 929.863125 318.7421875 930.523125 318.7421875 931.203125 C316.87109375 932.71875 316.87109375 932.71875 314.3046875 934.453125 C313.39203125 935.07316406 312.479375 935.69320312 311.5390625 936.33203125 C310.61609375 936.94949219 309.693125 937.56695313 308.7421875 938.203125 C307.54335937 939.02103516 307.54335937 939.02103516 306.3203125 939.85546875 C302.49003132 942.45081445 298.62454217 944.86210993 294.59594727 947.14331055 C291.55188912 948.88363142 288.55601141 950.70293637 285.5546875 952.515625 C278.98387695 956.46953883 272.38888585 960.3776871 265.7421875 964.203125 C264.91847656 964.6775 264.09476563 965.151875 263.24609375 965.640625 C258.83983323 968.13725828 254.42082613 970.24660339 249.7421875 972.203125 C247.97875 973.1003125 247.97875 973.1003125 246.1796875 974.015625 C241.40397449 976.44021776 236.47026447 978.47003774 231.5390625 980.5546875 C226.42393495 982.74574681 221.42054066 985.17084573 216.41015625 987.58984375 C213.04514484 989.13838539 209.60546476 990.29726604 206.08276367 991.43286133 C202.11387216 992.7389897 198.21618596 994.23581508 194.3046875 995.703125 C188.5024962 997.86387501 182.72489396 999.9551116 176.75 1001.59765625 C174.65376001 1002.1944715 174.65376001 1002.1944715 172.35546875 1003.18359375 C169.53341008 1004.28457628 166.75136177 1005.00532826 163.8046875 1005.703125 C160.74399751 1006.42979204 157.77666369 1007.19141956 154.796875 1008.203125 C151.49059253 1009.28548857 148.21307615 1010.01014874 144.8046875 1010.703125 C141.31306578 1011.41459609 137.90433803 1012.15484969 134.48828125 1013.171875 C129.61950385 1014.51218494 124.71773545 1015.35941668 119.7421875 1016.203125 C118.71689941 1016.37900146 117.69161133 1016.55487793 116.63525391 1016.73608398 C109.97807535 1017.86341649 103.32477695 1018.86377934 96.625 1019.703125 C93.59343503 1020.09350761 90.57111872 1020.51156574 87.546875 1020.953125 C86.6285791 1021.08710693 85.7102832 1021.22108887 84.76416016 1021.35913086 C82.9796641 1021.62081713 81.19545819 1021.8844937 79.41162109 1022.15063477 C67.4324395 1023.89812882 55.6084136 1024.37765088 43.51953125 1024.40625 C42.70153109 1024.40907738 41.88353092 1024.41190475 41.04074287 1024.41481781 C36.69895238 1024.42973611 32.3571944 1024.43900809 28.01538086 1024.44335938 C24.48500067 1024.44771598 20.95486872 1024.46150807 17.42456055 1024.484375 C-2.10741262 1024.60841515 -21.2225406 1024.43259569 -40.59246826 1021.58575439 C-44.24673141 1021.06115856 -47.91007788 1020.62720336 -51.57626343 1020.19514465 C-65.96613899 1018.43816242 -80.11073941 1015.31209256 -94.2578125 1012.203125 C-95.18722656 1012.00009766 -96.11664063 1011.79707031 -97.07421875 1011.58789062 C-104.02333 1010.05736767 -110.76786881 1008.44149163 -117.41235352 1005.86987305 C-119.68838311 1005.04756364 -121.93331407 1004.58568235 -124.3203125 1004.203125 C-127.89444109 1003.54245275 -130.92902841 1002.59687633 -134.23828125 1001.046875 C-136.89979519 999.93490786 -139.61801154 999.14928744 -142.3828125 998.328125 C-148.08259269 996.61557636 -153.59776509 994.603961 -159.1328125 992.421875 C-162.03238598 991.29104134 -164.94761383 990.23711544 -167.8828125 989.203125 C-172.56247757 987.51871725 -177.04514143 985.53103025 -181.55078125 983.4296875 C-184.21639499 982.22189137 -186.90502931 981.13690899 -189.6328125 980.078125 C-193.08121318 978.72591749 -196.10715721 977.16164045 -199.2578125 975.203125 C-200.87518949 974.50996343 -202.49330982 973.81841742 -204.1171875 973.140625 C-211.7449664 969.79999191 -219.00448872 965.85873818 -226.09375 961.50390625 C-228.36054435 960.10332776 -228.36054435 960.10332776 -231.2578125 958.703125 C-238.22590384 955.21907933 -244.71851494 950.93567828 -251.1640625 946.578125 C-253.05840266 945.33408072 -254.96983508 944.18716495 -256.9453125 943.078125 C-267.83551881 936.91385728 -278.0150895 929.20330501 -288.0703125 921.765625 C-288.7823584 921.24548828 -289.4944043 920.72535156 -290.22802734 920.18945312 C-291.94265005 918.91012294 -293.60586916 917.56242626 -295.2578125 916.203125 C-295.2578125 915.543125 -295.2578125 914.883125 -295.2578125 914.203125 C-295.85005615 914.09226562 -296.4422998 913.98140625 -297.05249023 913.8671875 C-299.48638727 913.13429699 -300.66296634 912.26451901 -302.54296875 910.578125 C-303.15132568 910.04034424 -303.75968262 909.50256348 -304.38647461 908.94848633 C-305.02464111 908.37251709 -305.66280762 907.79654785 -306.3203125 907.203125 C-307.65498798 906.01810832 -308.99093656 904.83452405 -310.328125 903.65234375 C-310.98844727 903.06759277 -311.64876953 902.4828418 -312.32910156 901.88037109 C-315.91157416 898.76498037 -319.64412369 895.84035683 -323.37890625 892.91015625 C-323.99894531 892.34683594 -324.61898437 891.78351562 -325.2578125 891.203125 C-325.2578125 890.543125 -325.2578125 889.883125 -325.2578125 889.203125 C-325.8971875 888.935 -326.5365625 888.666875 -327.1953125 888.390625 C-329.2578125 887.203125 -329.2578125 887.203125 -330.2578125 884.203125 C-330.9178125 883.873125 -331.5778125 883.543125 -332.2578125 883.203125 C-334.2578125 882.203125 -334.2578125 882.203125 -335.2578125 879.203125 C-335.8146875 878.935 -336.3715625 878.666875 -336.9453125 878.390625 C-340.29545413 876.670282 -342.88206757 874.11737212 -345.2578125 871.203125 C-345.2578125 870.543125 -345.2578125 869.883125 -345.2578125 869.203125 C-345.8971875 868.935 -346.5365625 868.666875 -347.1953125 868.390625 C-349.2578125 867.203125 -349.2578125 867.203125 -350.2578125 864.203125 C-350.9178125 863.873125 -351.5778125 863.543125 -352.2578125 863.203125 C-354.2578125 862.203125 -354.2578125 862.203125 -355.2578125 859.203125 C-355.9178125 859.203125 -356.5778125 859.203125 -357.2578125 859.203125 C-358.59765625 857.91015625 -358.59765625 857.91015625 -360.1953125 856.015625 C-361.11763672 854.93087891 -361.11763672 854.93087891 -362.05859375 853.82421875 C-362.78433594 852.95925781 -363.51007813 852.09429688 -364.2578125 851.203125 C-365.16734057 850.1309772 -366.07753508 849.05939451 -366.98828125 847.98828125 C-369.30810369 845.25684585 -371.62771471 842.52533421 -373.92675781 839.77636719 C-374.83948708 838.69756538 -375.76680124 837.63098459 -376.70605469 836.57519531 C-380.2578125 832.52354196 -380.2578125 832.52354196 -380.2578125 829.203125 C-381.2478125 828.873125 -382.2378125 828.543125 -383.2578125 828.203125 C-384.65234375 826.63671875 -384.65234375 826.63671875 -386.0703125 824.640625 C-388.67816362 821.00662694 -391.38123649 817.47274545 -394.15625 813.96484375 C-395.2578125 812.203125 -395.2578125 812.203125 -395.2578125 809.203125 C-395.9178125 809.203125 -396.5778125 809.203125 -397.2578125 809.203125 C-398.7734375 807.33203125 -398.7734375 807.33203125 -400.5078125 804.765625 C-401.12785156 803.85296875 -401.74789062 802.9403125 -402.38671875 802 C-403.00417969 801.07703125 -403.62164062 800.1540625 -404.2578125 799.203125 C-405.07572266 798.00429687 -405.07572266 798.00429687 -405.91015625 796.78125 C-408.50550195 792.95096882 -410.91679743 789.08547967 -413.19799805 785.05688477 C-414.93831892 782.01282662 -416.75762387 779.01694891 -418.5703125 776.015625 C-422.52422633 769.44481445 -426.4323746 762.84982335 -430.2578125 756.203125 C-430.7321875 755.37941406 -431.2065625 754.55570313 -431.6953125 753.70703125 C-434.19194578 749.30077073 -436.30129089 744.88176363 -438.2578125 740.203125 C-438.8559375 739.0275 -439.4540625 737.851875 -440.0703125 736.640625 C-442.49490526 731.86491199 -444.52472524 726.93120197 -446.609375 722 C-448.80043431 716.88487245 -451.22553323 711.88147816 -453.64453125 706.87109375 C-455.19307289 703.50608234 -456.35195354 700.06640226 -457.48754883 696.54370117 C-458.7936772 692.57480966 -460.29050258 688.67712346 -461.7578125 684.765625 C-463.91856251 678.9634337 -466.0097991 673.18583146 -467.65234375 667.2109375 C-468.249159 665.11469751 -468.249159 665.11469751 -469.23828125 662.81640625 C-470.33926378 659.99434758 -471.06001576 657.21229927 -471.7578125 654.265625 C-472.48447954 651.20493501 -473.24610706 648.23760119 -474.2578125 645.2578125 C-475.34017607 641.95153003 -476.06483624 638.67401365 -476.7578125 635.265625 C-477.46928359 631.77400328 -478.20953719 628.36527553 -479.2265625 624.94921875 C-480.56687244 620.08044135 -481.41410418 615.17867295 -482.2578125 610.203125 C-482.5216272 608.66519287 -482.5216272 608.66519287 -482.79077148 607.09619141 C-483.91810399 600.43901285 -484.91846684 593.78571445 -485.7578125 587.0859375 C-486.14819511 584.05437253 -486.56625324 581.03205622 -487.0078125 578.0078125 C-487.14179443 577.0895166 -487.27577637 576.1712207 -487.41381836 575.22509766 C-487.67550463 573.4406016 -487.9391812 571.65639569 -488.20532227 569.87255859 C-489.95281632 557.893377 -490.43233838 546.0693511 -490.4609375 533.98046875 C-490.46517857 532.7534685 -490.46517857 532.7534685 -490.46950531 531.50168037 C-490.48442361 527.15988988 -490.49369559 522.8181319 -490.49804688 518.47631836 C-490.50240348 514.94593817 -490.51619557 511.41580622 -490.5390625 507.88549805 C-490.66310265 488.35352488 -490.48728319 469.2383969 -487.64044189 449.86846924 C-487.11584606 446.21420609 -486.68189086 442.55085962 -486.24983215 438.88467407 C-484.49284992 424.49479851 -481.36678006 410.35019809 -478.2578125 396.203125 C-478.05478516 395.27371094 -477.85175781 394.34429687 -477.64257812 393.38671875 C-476.11205517 386.4376075 -474.49617913 379.69306869 -471.92456055 373.04858398 C-471.10225114 370.77255439 -470.64036985 368.52762343 -470.2578125 366.140625 C-469.59714025 362.56649641 -468.65156383 359.53190909 -467.1015625 356.22265625 C-465.98959536 353.56114231 -465.20397494 350.84292596 -464.3828125 348.078125 C-462.67026386 342.37834481 -460.6586485 336.86317241 -458.4765625 331.328125 C-457.34572884 328.42855152 -456.29180294 325.51332367 -455.2578125 322.578125 C-453.57340475 317.89845993 -451.58571775 313.41579607 -449.484375 308.91015625 C-448.27657887 306.24454251 -447.19159649 303.55590819 -446.1328125 300.828125 C-444.78060499 297.37972432 -443.21632795 294.35378029 -441.2578125 291.203125 C-440.56465093 289.58574801 -439.87310492 287.96762768 -439.1953125 286.34375 C-435.85467941 278.7159711 -431.91342568 271.45644878 -427.55859375 264.3671875 C-426.15801526 262.10039315 -426.15801526 262.10039315 -424.7578125 259.203125 C-421.27376683 252.23503366 -416.99036578 245.74242256 -412.6328125 239.296875 C-411.38876822 237.40253484 -410.24185245 235.49110242 -409.1328125 233.515625 C-402.96854478 222.62541869 -395.25799251 212.445848 -387.8203125 202.390625 C-387.30017578 201.6785791 -386.78003906 200.9665332 -386.24414062 200.23291016 C-384.96481044 198.51828745 -383.61711376 196.85506834 -382.2578125 195.203125 C-381.5978125 195.203125 -380.9378125 195.203125 -380.2578125 195.203125 C-380.14695312 194.61088135 -380.03609375 194.0186377 -379.921875 193.40844727 C-379.18898449 190.97455023 -378.31920651 189.79797116 -376.6328125 187.91796875 C-376.09503174 187.30961182 -375.55725098 186.70125488 -375.00317383 186.07446289 C-374.42720459 185.43629639 -373.85123535 184.79812988 -373.2578125 184.140625 C-372.07279582 182.80594952 -370.88921155 181.47000094 -369.70703125 180.1328125 C-369.12228027 179.47249023 -368.5375293 178.81216797 -367.93505859 178.13183594 C-364.81966787 174.54936334 -361.89504433 170.81681381 -358.96484375 167.08203125 C-358.40152344 166.46199219 -357.83820313 165.84195313 -357.2578125 165.203125 C-356.5978125 165.203125 -355.9378125 165.203125 -355.2578125 165.203125 C-354.9896875 164.56375 -354.7215625 163.924375 -354.4453125 163.265625 C-353.2578125 161.203125 -353.2578125 161.203125 -350.2578125 160.203125 C-349.9278125 159.543125 -349.5978125 158.883125 -349.2578125 158.203125 C-348.2578125 156.203125 -348.2578125 156.203125 -345.2578125 155.203125 C-344.9896875 154.64625 -344.7215625 154.089375 -344.4453125 153.515625 C-342.7249695 150.16548337 -340.17205962 147.57886993 -337.2578125 145.203125 C-336.5978125 145.203125 -335.9378125 145.203125 -335.2578125 145.203125 C-334.9896875 144.56375 -334.7215625 143.924375 -334.4453125 143.265625 C-333.2578125 141.203125 -333.2578125 141.203125 -330.2578125 140.203125 C-329.9278125 139.543125 -329.5978125 138.883125 -329.2578125 138.203125 C-328.2578125 136.203125 -328.2578125 136.203125 -325.2578125 135.203125 C-324.96390625 134.605 -324.67 134.006875 -324.3671875 133.390625 C-322.90945013 130.51621329 -321.04442068 129.18438109 -318.5078125 127.203125 C-315.11465324 124.51462976 -311.77481388 121.80798557 -308.5234375 118.94921875 C-307.89791992 118.40072266 -307.27240234 117.85222656 -306.62792969 117.28710938 C-305.39467134 116.20132683 -304.16602684 115.11027808 -302.94238281 114.01367188 C-298.58924181 110.203125 -298.58924181 110.203125 -295.2578125 110.203125 C-295.061875 109.64238281 -294.8659375 109.08164063 -294.6640625 108.50390625 C-292.68299831 105.26266512 -289.841282 103.487433 -286.7578125 101.390625 C-286.13140869 100.95411621 -285.50500488 100.51760742 -284.85961914 100.06787109 C-282.99754643 98.77191608 -281.12827188 97.48693336 -279.2578125 96.203125 C-277.40234903 94.91332188 -275.54799061 93.62192585 -273.6953125 92.328125 C-272.90382813 91.77769531 -272.11234375 91.22726563 -271.296875 90.66015625 C-269.67816161 89.5034894 -268.1132933 88.2715396 -266.5703125 87.015625 C-264.23072366 85.1818932 -261.79417675 83.76198114 -259.1953125 82.328125 C-257.05962832 81.08805031 -255.04444118 79.72467038 -253.0078125 78.328125 C-248.73503343 75.43578225 -244.2921531 72.99612289 -239.7421875 70.5703125 C-237.12957847 69.18355238 -237.12957847 69.18355238 -234.3203125 67.203125 C-230.41059683 64.6498413 -226.28002987 62.70351994 -222.08984375 60.65234375 C-218.97338227 59.05757518 -216.15757569 57.15877925 -213.2578125 55.203125 C-210.93801869 54.17210553 -208.60351335 53.17375983 -206.2578125 52.203125 C-205.0821875 51.605 -203.9065625 51.006875 -202.6953125 50.390625 C-197.91959949 47.96603224 -192.98588947 45.93621226 -188.0546875 43.8515625 C-182.93955995 41.66050319 -177.93616566 39.23540427 -172.92578125 36.81640625 C-169.56076984 35.26786461 -166.12108976 34.10898396 -162.59838867 32.97338867 C-158.62949716 31.6672603 -154.73181096 30.17043492 -150.8203125 28.703125 C-144.96517752 26.52265863 -139.12993164 24.44833161 -133.11328125 22.75 C-131.11214524 22.19589832 -131.11214524 22.19589832 -128.6953125 21.140625 C-126.44081047 20.27350884 -124.36555182 19.76070968 -122.0078125 19.265625 C-118.93038418 18.6188092 -116.03049804 17.82401536 -113.0703125 16.765625 C-109.34656633 15.47406114 -105.63122093 14.58835493 -101.7734375 13.78515625 C-97.12473133 12.80871982 -92.48278749 11.8123648 -87.84765625 10.7734375 C-73.83298798 7.69820084 -59.85154114 5.28086844 -45.6328125 3.390625 C-44.84494354 3.28566711 -44.05707458 3.18070923 -43.24533081 3.0725708 C-38.25380357 2.41339986 -33.26141344 1.76434478 -28.2578125 1.203125 C-27.48311615 1.11207489 -26.7084198 1.02102478 -25.9102478 0.92721558 C-17.28508093 0.01673431 -8.66191407 0.02045284 0 0 Z " fill="#000000" transform="translate(490.2578125,-0.203125)"/>
<path d="M0 0 C9.57 0 19.14 0 29 0 C29.33 22.77 29.66 45.54 30 69 C33.3 66.36 36.6 63.72 40 61 C55.23726589 50.07995944 74.02332923 47.99545111 92.19311523 50.76953125 C110.36179308 54.00782173 127.978093 63.85384003 139.109375 78.83984375 C140.83036386 81.52061486 142.44233856 84.2215759 144 87 C145.01707031 88.64935547 145.01707031 88.64935547 146.0546875 90.33203125 C148.18968665 94.07629555 149.23817569 97.81816634 150.1875 102 C150.35185547 102.67289063 150.51621094 103.34578125 150.68554688 104.0390625 C152.50402406 111.66635953 153.18159842 119.04949878 153.1875 126.875 C153.19974609 127.72191406 153.21199219 128.56882812 153.22460938 129.44140625 C153.26425588 146.70085145 145.05574445 162.30948558 133.3125 174.6875 C124.55732742 183.44267258 115.61975513 189.51518223 104 194 C103.2575 194.35191406 102.515 194.70382812 101.75 195.06640625 C94.49858425 198.09134276 87.72946153 198.39751061 79.9375 198.4375 C78.43038452 198.4523645 78.43038452 198.4523645 76.89282227 198.4675293 C58.6114661 198.26007493 43.93986805 190.15189444 30 179 C29.67 184.28 29.34 189.56 29 195 C19.43 195 9.86 195 0 195 C0 130.65 0 66.3 0 0 Z " fill="#F9F9F9" transform="translate(402,413)"/>
<path d="M0 0 C11.74296179 8.94843418 19.88574224 20.38154312 24.73583984 34.32275391 C25.02330078 35.11939453 25.31076172 35.91603516 25.60693359 36.73681641 C29.60458843 48.17508239 28.73583984 57.39090501 28.73583984 70.32275391 C-9.21416016 70.32275391 -47.16416016 70.32275391 -86.26416016 70.32275391 C-82.48152522 83.09938413 -82.48152522 83.09938413 -75.61962891 92.68603516 C-74.26416016 94.32275391 -74.26416016 94.32275391 -74.26416016 96.32275391 C-73.68021484 96.59345703 -73.09626953 96.86416016 -72.49462891 97.14306641 C-70.28041826 98.31415505 -68.52005525 99.62511134 -66.57666016 101.19775391 C-56.03004722 109.26049164 -45.12027038 110.14392029 -32.26416016 109.32275391 C-20.28435063 107.60942529 -12.15253751 102.57651321 -3.52587891 94.31103516 C-1.4833897 92.51547902 0.25298757 91.38521014 2.73583984 90.32275391 C15.40554372 99.73277669 15.40554372 99.73277669 20.73583984 104.32275391 C14.49497873 117.81973584 -0.58054645 126.54412845 -14.01416016 131.57275391 C-21.93368167 134.39784638 -29.43520543 134.54053641 -37.76391602 134.56298828 C-39.92780696 134.57264743 -42.09072785 134.60368553 -44.25439453 134.63525391 C-55.40324658 134.72288519 -64.32370425 132.69243739 -74.26416016 127.63525391 C-75.29488647 127.1119751 -75.29488647 127.1119751 -76.34643555 126.578125 C-91.90057688 118.43828885 -104.45668131 104.82168342 -110.50244141 88.29150391 C-111.10043044 86.35171143 -111.10043044 86.35171143 -112.26416016 85.32275391 C-117.78503965 63.71752357 -115.6104052 40.46812129 -104.26416016 21.32275391 C-101.8162925 17.76312559 -99.16093762 14.52445531 -96.26416016 11.32275391 C-95.59900391 10.56478516 -94.93384766 9.80681641 -94.24853516 9.02587891 C-85.60701185 -0.25575724 -74.54612968 -7.3619732 -62.26416016 -10.67724609 C-61.62430176 -10.85022217 -60.98444336 -11.02319824 -60.32519531 -11.20141602 C-39.33770677 -16.41681391 -17.56401539 -12.45465925 0 0 Z " fill="#FBFBFB" transform="translate(681.26416015625,475.67724609375)"/>
<path d="M0 0 C9.57 0 19.14 0 29 0 C29.01981934 3.78436523 29.03963867 7.56873047 29.06005859 11.46777344 C29.12708257 23.99673713 29.2046231 36.52561744 29.28752708 49.05448532 C29.33751734 56.64779422 29.38396106 64.24109306 29.421875 71.83447266 C29.45495376 78.4576232 29.49487095 85.08069237 29.54279006 91.70375276 C29.56789829 95.20628348 29.58972452 98.70876132 29.60334396 102.21135712 C29.61872611 106.13416622 29.64938492 110.05678003 29.68115234 113.97949219 C29.68331253 115.12389267 29.68547272 116.26829315 29.68769836 117.44737244 C29.79242313 127.62664815 30.43580845 137.69578319 35.5625 146.6875 C35.91473633 147.31906006 36.26697266 147.95062012 36.62988281 148.60131836 C43.16635949 159.84434619 52.13963286 166.00898589 64.37890625 170.140625 C78.47515291 173.48601256 91.75930229 170.21622213 104 163 C113.75307242 156.60937795 118.6986582 145.82714942 122 135 C122.34042328 134.04798203 122.68084656 133.09596405 123.03158569 132.11509705 C124.57008174 126.66646632 124.3084895 121.07379031 124.31884766 115.45532227 C124.32889328 114.20584305 124.3389389 112.95636383 124.34928894 111.66902161 C124.37479947 108.26041785 124.39170391 104.85197895 124.40471697 101.44331861 C124.4203981 97.8745132 124.44717231 94.30579103 124.4727478 90.73704529 C124.5194477 83.98702648 124.55623419 77.23699185 124.58942068 70.48689455 C124.62770435 62.79879792 124.67709806 55.11078507 124.72740483 47.42275918 C124.83059392 31.61522734 124.91843005 15.80766042 125 0 C134.57 0 144.14 0 154 0 C154 64.35 154 128.7 154 195 C144.43 195 134.86 195 125 195 C124.67 189.39 124.34 183.78 124 178 C122.68 179.155 121.36 180.31 120 181.5 C102.75961286 195.32669225 83.6562688 199.36549915 62 198 C43.0455373 195.72148018 27.18991618 184.97356174 15.1875 170.6875 C3.30367404 154.50341428 -0.34853464 136.33833883 -0.22705078 116.59057617 C-0.22734283 115.32071365 -0.22763489 114.05085114 -0.22793579 112.74250793 C-0.22850284 109.3053121 -0.21685522 105.86825969 -0.20278788 102.43109679 C-0.19017086 98.82234307 -0.18910146 95.213585 -0.18673706 91.60481262 C-0.18055419 84.7911822 -0.16418725 77.97761699 -0.14403808 71.16401511 C-0.12157887 63.39845344 -0.11066061 55.63288843 -0.10064721 47.8673023 C-0.07981766 31.91149082 -0.04318205 15.95576902 0 0 Z " fill="#FCFCFC" transform="translate(227,413)"/>
<path d="M0 0 C10.12121364 6.827656 16.42574459 18.22890109 19 30 C20.30493268 47.26070043 18.05602407 59.67080389 7.0703125 73.4140625 C-0.19150209 81.38835702 -11.53209455 88.64200676 -22.50390625 89.16796875 C-39.33410297 89.36325803 -52.0052541 86.61711911 -64.640625 74.60546875 C-74.91658162 63.25768222 -78.73417962 50.60920244 -78.34765625 35.484375 C-76.98136192 21.79072848 -70.58126926 9.75170933 -60 1 C-40.89245476 -12.73454167 -19.64766236 -12.18000563 0 0 Z " fill="#010101" transform="translate(508,497)"/>
<path d="M0 0 C0 8.58 0 17.16 0 26 C-2.92875 26.0825 -5.8575 26.165 -8.875 26.25 C-18.16279044 26.6736757 -25.72392532 27.70092741 -32.8125 34.1875 C-40.24731554 42.36052418 -42.1312082 50.19522277 -42.20532227 60.92114258 C-42.22017166 62.25360016 -42.22017166 62.25360016 -42.23532104 63.61297607 C-42.26683085 66.54013431 -42.29165181 69.46730875 -42.31640625 72.39453125 C-42.33698486 74.42763178 -42.35798157 76.46072812 -42.37937927 78.49382019 C-42.43450622 83.83833415 -42.4839568 89.18288612 -42.53222656 94.52746582 C-42.58251012 99.98383965 -42.63816038 105.44015845 -42.69335938 110.89648438 C-42.80082626 121.59761093 -42.90180054 132.29878438 -43 143 C-52.57 143 -62.14 143 -72 143 C-72 96.14 -72 49.28 -72 1 C-62.76 1 -53.52 1 -44 1 C-43.505 8.92 -43.505 8.92 -43 17 C-42.01 15.80375 -41.02 14.6075 -40 13.375 C-28.26799864 0.09127101 -16.91398805 -0.37867137 0 0 Z " fill="#F8F8F8" transform="translate(797,465)"/>
<path d="M0 0 C10.87102122 7.83635452 18.19551461 16.92308765 20.4375 30.375 C-8.2725 30.375 -36.9825 30.375 -66.5625 30.375 C-64.03942825 17.75964124 -56.4957932 7.34823357 -46.0625 -0.0625 C-32.31557122 -8.35765532 -13.76268246 -8.48384535 0 0 Z " fill="#050505" transform="translate(661.5625,493.625)"/>
</svg>
